<svg width="64" height="64" viewBox="0 0 64 64" fill="none" xmlns="http://www.w3.org/2000/svg">
<path fill-rule="evenodd" clip-rule="evenodd" d="M31.4941 10.4318C28.9673 10.847 26.7224 11.9409 24.6022 13.7902C23.4731 14.7749 22.6517 15.7805 21.7254 17.3124L21.0451 18.4374L18.9914 18.5173C17.5709 18.5727 16.5911 18.6795 15.8128 18.864C9.51469 20.3574 4.63481 25.6072 3.42806 32.1874C3.12506 33.8395 3.23919 36.9555 3.66969 38.7792C4.77044 43.4434 7.86644 47.3701 12.1162 49.4921C14.0402 50.4527 15.8724 50.926 18.4871 51.1379C21.0638 51.3467 28.8789 51.2143 30.5003 50.9344C32.0711 50.6632 34.0563 49.9959 35.3719 49.2969L36.4378 48.7307L37.5421 49.3529C38.7048 50.0083 40.3096 50.594 41.8753 50.9347C43.3743 51.2609 46.5726 51.3282 48.1378 51.0664C52.7876 50.2892 56.4303 47.6163 58.5538 43.4238C59.4116 41.7304 59.8764 39.6712 59.8737 37.5773C59.8657 31.4718 55.1918 25.7689 49.2097 24.5657L47.8128 24.2847L47.7808 23.7985C47.6461 21.751 47.1057 19.7058 46.2477 17.9964C44.7733 15.0588 41.6681 12.2705 38.5998 11.1295C36.5714 10.3752 33.6087 10.0842 31.4941 10.4318ZM31.6343 15.194C30.7509 15.3857 29.2981 16.0328 28.4698 16.6035C27.6406 17.175 26.6371 18.2234 26.0616 19.1195C25.5652 19.8923 24.8753 21.426 24.8753 21.7565C24.8753 22.0594 24.3417 22.7609 23.9618 22.9573C23.6401 23.1237 23.0507 23.163 20.5677 23.1839C17.2037 23.2122 16.5246 23.3269 14.6829 24.1778C10.4441 26.1363 7.62419 30.814 7.91106 35.4117C8.10469 38.5154 9.31419 41.2155 11.4249 43.2563C12.9819 44.7618 14.2471 45.5084 16.1878 46.0674C17.1459 46.3434 17.7022 46.4082 19.9378 46.5038C23.4201 46.6528 27.1618 46.6497 28.6156 46.4965C29.8878 46.3625 32.0718 45.7835 32.9147 45.3569C33.2024 45.2112 33.8151 44.8489 34.2763 44.5519C36.0372 43.4175 36.5104 43.3525 37.6952 44.0824C40.9654 46.0969 42.4061 46.5537 45.4378 46.5374C48.0007 46.5237 49.5566 46.0809 51.3163 44.8644C54.9693 42.339 56.1338 37.7972 54.1659 33.7499C53.1004 31.5588 50.9526 29.8229 48.5303 29.1952C48.1012 29.084 46.9651 28.9439 46.0056 28.8838C44.5214 28.7909 44.2041 28.734 43.8788 28.5024C43.1718 27.999 43.0874 27.6654 43.0558 25.2499C43.0368 23.8012 42.9603 22.7669 42.8291 22.1874C42.5732 21.058 41.6813 19.2687 40.8914 18.3002C39.7282 16.874 37.5928 15.5667 35.8092 15.1888C34.7289 14.96 32.7018 14.9625 31.6343 15.194Z" fill="black"/>
</svg>
