<svg width="64" height="64" viewBox="0 0 64 64" fill="none" xmlns="http://www.w3.org/2000/svg">
<path fill-rule="evenodd" clip-rule="evenodd" d="M28.1889 0.396375C27.5678 0.885 27.381 1.5175 27.378 3.14325L27.3753 4.599L26.344 4.68612C24.745 4.82112 22.8292 5.223 21.215 5.76225C14.7368 7.926 10.9288 12.0827 10.051 17.9487C9.7563 19.9182 9.86105 22.7569 10.2885 24.3916C11.727 29.8916 15.3787 33.1908 21.8128 34.8035C23.2677 35.1683 26.7762 35.875 27.1317 35.875C27.3703 35.875 27.3753 36.0177 27.3753 42.75C27.3753 46.5312 27.3484 49.625 27.3157 49.625C27.0853 49.625 25.4618 48.9211 24.9819 48.6131C24.246 48.141 23.4772 47.3142 23.1152 46.6061C22.9623 46.3071 22.5393 45.1731 22.1753 44.0861C21.8112 42.999 21.3129 41.7515 21.0682 41.3139C19.6608 38.7971 16.2039 37.5396 12.9679 38.3672C11.7567 38.6771 11.1137 39.009 10.3617 39.7124C8.91505 41.0655 8.44805 42.9223 8.94692 45.3375C9.48092 47.9228 10.9523 50.4791 13.1797 52.6912C15.1015 54.6 17.1095 55.8408 20.0749 56.9516C21.9733 57.6628 25.2383 58.375 26.5999 58.375C27.3687 58.375 27.3753 58.389 27.3753 60.0109C27.3753 61.7623 27.5359 62.2886 28.211 62.75C28.6454 63.0468 28.7708 63.0645 30.7037 63.1021C32.5195 63.1374 32.7999 63.1148 33.3038 62.8919C34.2323 62.4811 34.3743 62.1184 34.3748 60.1562C34.3752 58.9155 34.4145 58.4996 34.5315 58.4986C35.0244 58.4945 38.0559 57.9588 39.1517 57.6823C41.7268 57.0323 43.9969 56.0612 45.9015 54.795C47.0609 54.0244 48.9488 52.2095 49.8884 50.9625C50.7849 49.7728 52.0198 47.3017 52.3683 46C53.45 41.9608 53.0883 37.4183 51.4353 34.2835C50.0793 31.7119 48.3575 30.0263 45.5954 28.5661C43.1153 27.255 40.8835 26.5707 36.825 25.8771C35.6115 25.6697 34.5638 25.5 34.4969 25.5C34.4198 25.5 34.3753 23.3235 34.3753 19.549V13.5979L34.719 13.6815C34.908 13.7275 35.5227 13.9863 36.0848 14.2566C37.8633 15.112 38.7192 16.1989 39.5069 18.602C40.5183 21.687 41.8938 22.7899 44.9378 22.9564C47.7718 23.1114 50.0254 22.0589 50.9675 20.1406C51.2942 19.4755 51.3124 19.3461 51.3065 17.75C51.2994 15.845 51.166 15.3206 50.187 13.3479C48.5182 9.98512 45.1915 7.37463 40.5863 5.81388C38.9755 5.268 36.8079 4.79188 35.3973 4.67425L34.3753 4.589L34.3725 3.07575C34.3704 1.86863 34.3225 1.45838 34.136 1.04788C33.7298 0.15325 33.6315 0.125 30.9268 0.125C28.6603 0.125 28.5158 0.139375 28.1889 0.396375ZM26.8128 13.6809C26.1582 13.8822 24.7975 14.5701 24.2703 14.9663C23.584 15.4818 22.7734 16.6975 22.4869 17.6409C22.1252 18.8316 22.1839 20.4284 22.621 21.288C23.272 22.5684 24.9749 23.6854 27.0114 24.168L27.335 24.2446L27.4132 18.9679C27.4562 16.0656 27.4512 13.6541 27.402 13.609C27.3529 13.5639 27.0878 13.5962 26.8128 13.6809ZM34.3753 43.3817C34.3753 48.4811 34.4057 49.625 34.5409 49.625C34.8183 49.625 36.4372 49.043 37.2738 48.6424C38.6793 47.9695 40.0952 46.4503 40.5694 45.1064C41.2968 43.0446 40.939 40.8083 39.6802 39.5486C38.8302 38.6981 37.4983 38.0632 35.0315 37.3327L34.3753 37.1385V43.3817Z" fill="black"/>
</svg>
