<svg width="65" height="65" viewBox="0 0 65 65" fill="none" xmlns="http://www.w3.org/2000/svg">
<path fill-rule="evenodd" clip-rule="evenodd" d="M32.853 3.37493C31.6858 3.60543 31.3749 4.08356 30.1343 7.55606C28.8575 11.1294 27.4811 14.8873 27.2498 15.4311C27.1328 15.7061 26.8135 16.5498 26.5403 17.3061C26.2671 18.0623 25.885 19.1029 25.6911 19.6186C25.4973 20.1342 25.1338 21.1186 24.8834 21.8061C24.2755 23.4752 24.0133 23.7353 22.8026 23.8701C22.2949 23.9266 21.0638 24.0071 20.0669 24.0489C19.07 24.0908 18.0294 24.1513 17.7544 24.1833C17.2764 24.2391 10.6769 24.5364 6.77976 24.6779C4.35801 24.7658 3.79126 24.9904 3.30201 26.0561C2.81151 27.1243 3.14801 28.2909 4.17339 29.0776C5.18689 29.8551 6.92801 31.1617 7.30939 31.4311C7.50401 31.5686 8.55064 32.3561 9.63526 33.1811C10.72 34.0061 11.8771 34.8779 12.2068 35.1186C12.5365 35.3592 13.2726 35.9174 13.8428 36.3591C14.4129 36.8008 15.5825 37.6934 16.4419 38.3428C17.3013 38.9922 18.1309 39.6606 18.2856 39.8281C18.6584 40.2316 18.6506 40.9397 18.262 41.9936C17.9306 42.8921 15.5203 48.9268 14.9418 50.3061C14.74 50.7873 14.2005 52.0811 13.743 53.1811C13.2855 54.2811 12.6596 55.7717 12.3521 56.4936C11.3279 58.8984 11.2515 59.3919 11.7411 60.4434C12.1644 61.3524 12.6621 61.6687 13.7539 61.7222C14.5684 61.7621 14.6946 61.7312 15.5669 61.2778C16.7466 60.6646 21.326 58.0249 23.4419 56.7384C24.0043 56.3966 26.0618 55.2028 29.9419 52.9673C32.609 51.4306 32.9859 51.2432 33.4056 51.2452C33.7988 51.2469 34.6313 51.6472 36.4113 52.6902C37.0813 53.0828 37.995 53.6147 38.4419 53.8722C38.8888 54.1297 40.1263 54.8613 41.1919 55.4979C42.2575 56.1346 43.4388 56.8249 43.8169 57.0321C44.4858 57.3984 45.7004 58.1117 49.6919 60.4826C51.89 61.7882 52.4913 61.9922 53.3946 61.7393C54.0379 61.5592 54.8461 60.9162 55.1375 60.3529C55.3404 59.9607 55.3735 58.9904 55.2031 58.4302C55.1405 58.2244 54.826 57.4373 54.5041 56.6811C53.6958 54.7821 53.5009 54.3089 52.2648 51.2436C51.6686 49.7654 51.1051 48.3873 51.0124 48.1811C50.2519 46.4891 48.192 41.0327 48.1924 40.7111C48.193 40.1703 48.5773 39.5692 49.1561 39.2033C49.4164 39.0388 50.5013 38.2329 51.5669 37.4124C54.562 35.1064 59.249 31.5603 61.9398 29.5646C62.4896 29.1567 63.089 28.6072 63.2718 28.3434C64.208 26.9924 63.4524 25.1312 61.8144 24.7537C61.5064 24.6827 60.5513 24.6226 59.6919 24.6199C58.1803 24.6154 50.1723 24.2617 45.4419 23.9907C42.5534 23.8251 42.737 23.9624 41.6778 21.1757C41.2609 20.0787 40.641 18.4498 40.3003 17.5561C39.9596 16.6623 38.7786 13.4587 37.6759 10.4368C36.5731 7.41493 35.5644 4.73381 35.4343 4.47856C35.1535 3.92831 34.69 3.57331 34.0044 3.38343C33.7294 3.30731 33.4763 3.25081 33.4419 3.25793C33.4075 3.26506 33.1425 3.31768 32.853 3.37493Z" fill="black"/>
</svg>
