<svg width="64" height="64" viewBox="0 0 64 64" fill="none" xmlns="http://www.w3.org/2000/svg">
<g clip-path="url(#clip0_1131_674)">
<path fill-rule="evenodd" clip-rule="evenodd" d="M3.57061 0.40625C3.47861 0.62975 3.36473 1.10013 3.31761 1.45175C3.23448 2.07125 3.21561 2.09587 2.70998 2.24487C1.96536 2.4645 1.62561 2.81925 1.62561 3.37737C1.62561 3.92062 1.89636 4.21225 2.50886 4.32863C3.24836 4.46913 3.37561 4.58738 3.37561 5.13338C3.37561 6.17675 3.95411 6.88287 4.66311 6.705C4.83136 6.66275 5.15886 6.3775 5.39098 6.071L5.81311 5.514L6.72036 5.58787C7.48648 5.65037 7.66648 5.62675 7.87661 5.4365C8.25136 5.0975 8.19373 4.50138 7.71786 3.79375L7.31011 3.1875L7.72248 2.5C8.23636 1.6435 8.23848 1.04338 7.72898 0.75875C7.42973 0.5915 7.29961 0.594875 6.48086 0.791375C5.97811 0.912125 5.55161 0.966125 5.53311 0.911625C5.51473 0.857125 5.38811 0.62975 5.25198 0.40625C5.02498 0.034 4.95136 0 4.37111 0C3.77436 0 3.72823 0.023375 3.57061 0.40625ZM18.065 0.17075C17.8944 0.295375 17.8165 0.548 17.776 1.10825L17.7206 1.875H17.0481C16.2625 1.875 15.8756 2.15912 15.8756 2.73612C15.8756 3.35025 16.2366 3.65537 17.0424 3.72225L17.7506 3.781V4.33413C17.7506 4.94713 18.0079 5.553 18.3187 5.67238C18.7021 5.8195 19.2124 5.7495 19.4187 5.52138C19.5642 5.36063 19.6256 5.06375 19.6256 4.52138V3.75H20.3131C20.834 3.75 21.0612 3.68937 21.2506 3.5C21.5524 3.19825 21.5794 2.543 21.306 2.15287C21.1421 1.91875 20.9945 1.875 20.3685 1.875H19.6256V1.1875C19.6256 0.666625 19.565 0.439375 19.3756 0.25C19.0842 -0.041375 18.4107 -0.082125 18.065 0.17075ZM29.2506 1.66775V3.3355L28.4069 3.66213C27.9427 3.84175 27.241 4.10738 26.8472 4.25238C25.7091 4.67125 25.3046 5.441 25.9069 6.042C26.0616 6.19637 26.8695 6.56363 27.7021 6.85813L29.2162 7.39362L29.295 8.228C29.3384 8.687 29.3742 9.43813 29.3747 9.89713C29.3755 10.6495 29.4081 10.7574 29.705 10.9909C30.3831 11.5244 30.8161 11.2598 32.5235 9.26838L33.0972 8.59925L34.7455 9.061C36.1897 9.46562 36.4396 9.50388 36.7645 9.36925C37.597 9.0245 37.5481 8.42775 36.5651 6.93512C35.4761 5.2815 35.4816 5.51875 36.4934 3.85912C37.4532 2.2845 37.5694 1.81875 37.115 1.36437C36.8965 1.14587 36.7402 1.11237 36.1462 1.1565C35.7567 1.18537 34.9415 1.34475 34.3346 1.51075L33.2311 1.8125L32.416 0.90625L31.6009 0H30.6939H29.7869L29.6645 1.59375L29.5421 3.1875L29.5214 1.59375C29.5089 0.628375 29.4514 0 29.3756 0C29.2985 0 29.2506 0.63925 29.2506 1.66775ZM31.2506 3.62325V4.49638L30.4959 4.87738C30.0807 5.087 29.7714 5.30737 29.8084 5.36725C29.8454 5.42712 30.185 5.60438 30.5631 5.761L31.2506 6.046V6.7995V7.55312L31.8715 6.94163L32.4922 6.33012L33.1401 6.47963C33.4965 6.562 33.8132 6.60413 33.844 6.57338C33.8747 6.54263 33.7432 6.23888 33.5519 5.89838L33.2039 5.27938L33.6594 4.51475C33.9136 4.088 34.0482 3.75062 33.964 3.75137C33.881 3.75212 33.5469 3.8335 33.2214 3.93225L32.6296 4.11188L32.0339 3.4325C31.7062 3.05887 31.3959 2.7525 31.3444 2.75163C31.2929 2.75075 31.2506 3.143 31.2506 3.62325ZM4.44848 3.08063C4.35223 3.33138 4.70436 3.75 5.01161 3.75C5.29211 3.75 5.44511 3.29687 5.24561 3.0565C5.04223 2.81137 4.54598 2.82638 4.44848 3.08063ZM51.1256 4.21163C50.2061 4.36613 48.8741 4.81063 47.965 5.26625C45.077 6.71363 42.6326 9.0805 40.4726 12.5215C39.4785 14.105 37.7745 17.1932 37.6689 17.6029C37.5749 17.9672 37.8077 18.2429 38.0256 18.025C38.1081 17.9425 38.4597 17.8741 38.8069 17.8731C39.5834 17.8708 39.656 17.8257 40.2369 16.9865C40.8296 16.1302 41.1036 16.0781 41.5407 16.7386L41.872 17.2391L42.4675 17.0584C42.7951 16.959 43.1125 16.8771 43.1727 16.8764C43.2846 16.875 43.2105 17.8486 43.0624 18.3261C42.9901 18.5592 43.0435 18.5995 43.5219 18.673C45.0316 18.905 49.9585 19.9232 50.0944 20.0312C50.3195 20.2104 50.3019 21.4881 50.0731 21.576C49.9755 21.6135 48.2457 21.3327 46.2294 20.9522C44.2129 20.5716 41.6631 20.1151 40.5631 19.9376C37.5636 19.4538 37.8756 19.5757 37.8756 18.887V18.2939L35.0319 17.8315C31.5721 17.2689 31.2354 17.2585 30.8847 17.7044C30.3404 18.3964 30.6904 19.3375 31.5859 19.5898C31.8484 19.6636 33.1179 19.8816 34.4069 20.0741L36.7506 20.4242V22.2019C36.7506 23.1796 36.7847 24.0685 36.8265 24.1772C36.891 24.3452 37.181 24.375 38.7559 24.375C39.7752 24.375 40.7467 24.4273 40.9146 24.4911C41.5292 24.7248 41.5959 25.8064 41.0149 26.1174C40.8709 26.1944 39.9597 26.25 38.8414 26.25H36.9156L36.8334 29.3438C36.7197 33.6203 36.7351 37.7197 36.8669 38.2876C37.05 39.0765 37.489 39.5854 38.3006 39.9497C38.9311 40.2329 39.158 40.2719 39.8631 40.2189C43.4179 39.9514 48.0457 34.6814 49.9995 28.6761C50.5052 27.1214 51.1256 23.9399 51.1256 22.9006C51.1256 22.3848 51.1454 22.3515 51.4069 22.4265C52.0232 22.6034 55.7046 23.25 56.0952 23.25C56.6966 23.25 57.1256 22.7839 57.1256 22.1306C57.1256 21.2159 57.0266 21.1744 53.0631 20.4304C52.1006 20.2497 51.292 20.0814 51.2662 20.0561C51.1396 19.9325 50.9102 14.2376 51.0102 13.702C51.2516 12.4099 51.875 11.4525 52.7769 10.9885C53.4061 10.6649 54.2425 10.6826 56.8131 11.0741C60.1367 11.5804 60.0234 11.5761 60.4465 11.2116C60.7719 10.9314 60.8114 10.8209 60.7976 10.2291C60.7626 8.72888 59.3082 6.62112 57.5006 5.45138C55.9265 4.43263 54.7996 4.11763 52.8181 4.142C52.0591 4.15138 51.2975 4.18263 51.1256 4.21163ZM10.8107 6.42362C10.6984 6.59512 10.4959 7.31525 10.3606 8.024C9.94086 10.2249 10.1045 9.98875 8.75786 10.3369C7.34923 10.7009 6.91523 10.9744 6.80373 11.5682C6.67586 12.2501 6.98261 12.5755 8.35661 13.2154C9.02011 13.5244 9.57648 13.7891 9.59273 13.8038C9.60911 13.8183 9.66911 14.571 9.72623 15.4765C9.81948 16.9565 9.85973 17.1545 10.1246 17.4364C10.6691 18.016 11.0217 17.8849 12.3065 16.625C12.9374 16.0063 13.5229 15.5 13.6074 15.5C13.6919 15.5 14.3324 15.6989 15.0307 15.942C16.4097 16.422 16.863 16.4262 17.188 15.9622C17.2911 15.8149 17.3756 15.5289 17.3756 15.3266C17.3756 15.0122 16.7374 13.678 16.167 12.8C16.0104 12.5589 16.0727 12.4333 16.936 11.2529C17.9897 9.81213 18.0759 9.483 17.5319 8.977C17.0444 8.5235 16.7336 8.491 15.2506 8.73862L13.9381 8.95788L13.4174 8.13513C13.131 7.68275 12.7372 7.05937 12.5424 6.75C12.2137 6.22825 12.1456 6.18475 11.6015 6.14975C11.0925 6.11688 10.988 6.15312 10.8107 6.42362ZM50.7694 6.75C50.6437 7.11025 50.6091 7.125 49.8924 7.125C48.6974 7.125 48.6712 7.16588 49.3247 8.01513C49.7817 8.60888 49.88 8.82275 49.8221 9.09638C49.7365 9.50125 49.8935 10.1518 50.093 10.2183C50.1707 10.2443 50.3645 10.0374 50.5237 9.75863C50.74 9.38 50.8921 9.2515 51.1256 9.25025C51.4722 9.24837 52.3756 9.0195 52.3756 8.93338C52.3756 8.90325 52.1814 8.51237 51.9439 8.06475C51.7064 7.61712 51.4751 7.05388 51.43 6.813C51.3242 6.24963 50.956 6.2145 50.7694 6.75ZM53.6256 6.46562C53.6256 6.5325 54.2171 8.14688 54.3122 8.3395C54.344 8.40388 57.5545 8.73775 57.6097 8.6825C57.7255 8.56675 56.8125 7.73213 56.0865 7.28988C55.6867 7.0465 55.0117 6.7415 54.5865 6.61212C53.7252 6.35025 53.6256 6.335 53.6256 6.46562ZM46.4936 9.14837C46.1291 9.74287 45.9945 9.86188 45.6155 9.92338C45.3692 9.9635 45.0679 10.1066 44.9456 10.2417C44.7304 10.4796 44.7365 10.4951 45.1432 10.7431C45.3742 10.8839 45.6006 10.9993 45.6465 10.9995C45.6924 10.9998 45.8297 11.2673 45.9516 11.5938C46.2482 12.388 46.4872 12.7473 46.6719 12.6764C46.7557 12.6443 46.978 12.3805 47.1657 12.0903C47.3777 11.7624 47.707 11.4674 48.0351 11.3114C48.7735 10.9601 48.817 10.5745 48.1485 10.307C47.7194 10.1354 47.6065 10.0001 47.2894 9.27775L46.9242 8.44613L46.4936 9.14837ZM11.903 10.512C11.8251 10.9311 11.7034 11.3437 11.6325 11.4291C11.5617 11.5145 11.1911 11.6594 10.8089 11.751C10.4266 11.8428 10.089 11.9582 10.0584 12.0077C10.0277 12.0572 10.3679 12.253 10.8141 12.4426L11.6256 12.7875V13.5188C11.6256 13.921 11.6769 14.25 11.7395 14.25C11.8021 14.25 11.9864 14.0954 12.1489 13.9062C12.7405 13.218 12.7951 13.2019 13.5667 13.4906L14.2685 13.7531L14.181 13.4704C14.1329 13.3148 13.9867 12.9757 13.8561 12.717L13.6187 12.2466L14.1847 11.6416C14.496 11.3089 14.7506 11.0068 14.7506 10.9703C14.7506 10.9339 14.3466 10.981 13.8529 11.0751C13.3591 11.1691 12.9464 11.233 12.9357 11.2169C12.9251 11.2008 12.7344 10.864 12.5119 10.4688C12.2894 10.0735 12.0932 9.75 12.076 9.75C12.0589 9.75 11.981 10.0929 11.903 10.512ZM3.05573 10.1772C2.86998 10.313 2.79848 10.5549 2.75061 11.2085L2.68811 12.0625L2.08373 12.0239C1.21561 11.9684 0.875609 12.2209 0.875609 12.921C0.875609 13.6415 1.14148 13.875 1.96211 13.875H2.59136L2.65873 14.7139C2.71211 15.3786 2.78336 15.5992 3.00223 15.7764C3.35761 16.0642 3.77298 16.0606 4.13598 15.7668C4.37148 15.576 4.43373 15.3819 4.47698 14.7043L4.52973 13.875H5.24586C6.10698 13.875 6.37561 13.6521 6.37561 12.9375C6.37561 12.1909 6.11448 11.9919 5.25286 12.082L4.53736 12.1567L4.46873 11.302C4.41411 10.6216 4.34386 10.4015 4.12398 10.2236C3.79161 9.95438 3.38486 9.93675 3.05573 10.1772ZM42.8284 13.1702C42.4419 13.7451 42.1256 14.2748 42.1256 14.3471C42.1256 14.4541 43.1632 15.125 43.3289 15.125C43.3546 15.125 43.3756 14.9498 43.3756 14.7356C43.3756 14.4503 43.4925 14.2391 43.8131 13.9455C44.0537 13.7251 44.2506 13.5029 44.2506 13.4517C44.2506 13.2597 43.7159 12.125 43.6254 12.125C43.5735 12.125 43.2147 12.5954 42.8284 13.1702ZM46.6184 14.4218C46.3831 14.8204 46.2917 14.875 45.8601 14.875H45.3692L45.5599 15.2437C45.8061 15.7199 45.8005 15.8614 45.5091 16.5121C45.3764 16.8088 45.2896 17.087 45.3165 17.1305C45.3434 17.174 45.6911 17.1651 46.0892 17.1109C46.8062 17.0131 46.8176 17.0165 47.2819 17.4689L47.7506 17.9258V17.109V16.2924L48.3131 15.8884C48.6225 15.6663 48.8756 15.4366 48.8756 15.3781C48.8756 15.3196 48.5257 15.2247 48.0981 15.1671C47.3391 15.065 47.3177 15.0516 47.1919 14.604C47.006 13.9421 46.9179 13.9141 46.6184 14.4218ZM21.6474 14.6643C21.4289 14.897 21.3756 15.105 21.3756 15.7268V16.5H20.7075C19.9089 16.5 19.6256 16.7375 19.6256 17.407C19.6256 18.0115 20.0779 18.375 20.83 18.375H21.3756V19.1658C21.3756 19.8306 21.4216 19.9996 21.6649 20.2283C22.0487 20.5888 22.5622 20.5746 22.9437 20.1931C23.2071 19.9299 23.2506 19.7702 23.2506 19.0681V18.25H23.931C24.7102 18.25 25.0006 17.9919 25.0006 17.2991C25.0006 16.7863 24.5767 16.5 23.8175 16.5H23.2506V15.6966C23.2506 14.9775 23.216 14.866 22.9212 14.6341C22.487 14.2925 21.9855 14.3044 21.6474 14.6643ZM13.9972 17.5811C13.4517 17.945 12.7506 18.6698 12.7512 18.8691C12.7515 18.9755 12.9692 19.7375 13.235 20.5625C13.5009 21.3875 13.9267 22.7375 14.1816 23.5625C14.4364 24.3875 15.0627 26.3281 15.5735 27.875C16.0844 29.4219 16.5017 30.7437 16.5012 30.8125C16.5006 30.8813 16.2694 31.1547 15.9872 31.4202C14.3357 32.9741 14.73 35.5321 16.7781 36.5527C17.1337 36.73 17.6019 36.875 17.8185 36.875H18.2124L18.9924 39.4062C19.4212 40.7984 19.933 42.4438 20.1295 43.0625C20.3259 43.6812 20.7139 44.9221 20.9915 45.82C21.5784 47.7175 21.8146 48.0341 22.6436 48.0341C23.062 48.0341 23.2319 47.9641 23.4611 47.6976C23.6204 47.5125 23.7506 47.258 23.7506 47.132C23.7506 46.8061 23.3034 45.2975 21.7371 40.3411L20.3637 35.9949L20.7756 35.4214C21.1411 34.9124 21.1925 34.739 21.2314 33.8806C21.2675 33.0861 21.2284 32.8215 21.0122 32.3978C20.6287 31.6461 20.0711 31.0607 19.4679 30.7766L18.9381 30.527L18.2921 28.5448C17.9369 27.4545 17.0172 24.6219 16.2485 22.25C14.9286 18.178 14.6242 17.375 14.4005 17.375C14.3487 17.375 14.1671 17.4678 13.9972 17.5811ZM4.33748 23.8856C4.00673 24.0828 3.91073 24.4346 3.80998 25.8193C3.64236 28.1235 3.64223 28.1241 3.00061 28.3717C2.69123 28.4911 1.88736 28.8005 1.21423 29.0594L-0.00976562 29.5299L0.0267344 30.4211L0.0631094 31.3125L0.688109 31.5244C1.03186 31.6409 1.81936 31.923 2.43811 32.1515L3.56311 32.5666L3.63973 34.1896C3.74298 36.3762 4.03736 37.0416 4.90136 37.0416C5.34311 37.0416 5.64311 36.7415 6.75061 35.1919C7.12873 34.6628 7.49773 34.1801 7.57048 34.1194C7.70211 34.0096 9.91048 34.6928 10.634 35.0669C11.5231 35.5266 12.3075 35.1429 12.3075 34.2482C12.3075 33.852 12.1249 33.4952 11.279 32.2391C10.7134 31.3991 10.2506 30.6461 10.2506 30.5659C10.2506 30.4856 10.4384 30.1989 10.6677 29.9287C11.4706 28.9834 12.5006 27.3216 12.5006 26.9719C12.5006 26.77 12.3514 26.4619 12.1377 26.2227C11.7231 25.7587 11.9967 25.7273 9.27286 26.5529C7.88236 26.9744 7.85398 26.9776 7.65123 26.7407C7.53761 26.6081 6.99323 25.895 6.44136 25.156C5.52623 23.9305 5.39973 23.8098 5.00061 23.7819C4.75998 23.765 4.46161 23.8118 4.33748 23.8856ZM23.4564 24.5565C22.984 24.9944 23.0302 25.4021 23.6256 26.048C23.9006 26.3464 24.1256 26.6317 24.1256 26.6822C24.1256 26.7327 23.9006 27.0297 23.6256 27.3421C23.0632 27.981 23.0076 28.3164 23.3847 28.7956C23.5844 29.0495 23.754 29.125 24.125 29.125C24.5354 29.125 24.6721 29.0479 25.055 28.6006L25.5039 28.0761L26.0382 28.6006C26.683 29.2334 27.2094 29.3025 27.6937 28.8181C28.1784 28.3336 28.0771 27.9599 27.2106 27.0347L26.8334 26.632L27.417 26.0885C28.0874 25.4642 28.1379 25.1822 27.677 24.6346C27.4192 24.3282 27.2559 24.25 26.8742 24.25C26.4695 24.25 26.3282 24.328 25.965 24.7525L25.535 25.2549L25.0325 24.7525C24.431 24.151 23.9575 24.0921 23.4564 24.5565ZM5.69323 27.9062C5.66598 27.9923 5.60723 28.3877 5.56261 28.7852L5.48161 29.5081L4.64736 29.9102C4.18848 30.1315 3.82323 30.3639 3.83573 30.4268C3.84811 30.4896 4.12948 30.6584 4.46111 30.8018C5.34248 31.183 5.32723 31.1626 5.49198 32.1839C5.57548 32.7015 5.68386 33.125 5.73273 33.125C5.78173 33.125 5.92036 32.958 6.04086 32.754C6.16136 32.55 6.39811 32.2189 6.56686 32.0182L6.87373 31.6536L7.69348 31.9039C8.14436 32.0415 8.54611 32.1211 8.58636 32.0809C8.62661 32.0408 8.57811 31.8795 8.47873 31.7226C8.37923 31.5659 8.17511 31.2345 8.02486 30.9862L7.75186 30.5351L8.31198 29.6824C8.61998 29.2134 8.85173 28.8094 8.82686 28.7845C8.80198 28.7598 8.41036 28.8326 7.95648 28.9466C7.50273 29.0606 7.04786 29.1219 6.94573 29.0828C6.84361 29.0435 6.57523 28.7286 6.34911 28.383C5.92811 27.7392 5.78023 27.6317 5.69323 27.9062ZM22.5722 31.6104C22.5346 31.671 22.6199 32.0507 22.7616 32.4541C23.1254 33.4897 23.0506 34.9291 22.5857 35.837C21.959 37.0614 22.1586 37.125 26.6247 37.125H30.0865L29.7339 39.2188C29.3014 41.7875 28.7506 45.509 28.7506 45.8634V46.125H40.7506C49.0351 46.125 52.7506 46.0844 52.7506 45.994C52.7506 45.9219 52.5194 44.4 52.2367 42.612C51.954 40.824 51.7629 39.3221 51.8119 39.2744C52.0122 39.079 53.3855 40.88 54.0466 42.205C54.7366 43.5879 54.983 44.6284 55.3154 47.5625C55.4866 49.075 55.6566 50.4556 55.693 50.6306C55.7295 50.8056 55.6692 51.1644 55.5591 51.4277C55.1095 52.504 55.842 54.1965 57.0359 54.8392C57.5742 55.1291 59.0414 55.1351 59.5707 54.8495C60.108 54.5596 60.7367 53.8911 60.9576 53.375C61.2562 52.6774 61.2145 51.4129 60.8709 50.7476C60.6197 50.2612 60.5605 49.8634 60.4211 47.725C60.1609 43.731 59.4782 41.2711 57.8922 38.6115C56.9237 36.9875 55.9057 35.7485 54.6572 34.6741C53.5836 33.7503 51.9314 32.6246 51.1076 32.2559L50.5722 32.0161L49.938 33.2269C47.5971 37.6958 44.331 40.9043 41.1947 41.816C40.0817 42.1395 38.3919 42.0346 37.4727 41.5849C36.584 41.1501 35.816 40.38 35.3934 39.5C35.0637 38.8138 35.063 38.8058 35.023 35.2519C34.9941 32.6931 34.9414 31.6649 34.8355 31.5975C34.6257 31.4641 22.6549 31.4766 22.5722 31.6104ZM7.95023 41.6562C7.85048 41.811 7.67598 42.3006 7.56223 42.7445C7.31661 43.7031 7.12611 44.095 6.73123 44.4541C6.30373 44.843 5.78211 45.0771 4.97036 45.2444C4.16786 45.4097 3.87311 45.6974 3.87961 46.3091C3.88573 46.8962 4.14348 47.1124 5.23923 47.4489C6.77573 47.9208 7.35311 48.543 7.62661 50.022C7.77536 50.8262 8.18411 51.25 8.81098 51.25C9.37861 51.25 9.65561 50.8722 9.86661 49.8107C10.0122 49.0781 10.113 48.8833 10.6116 48.3704C11.0604 47.9086 11.3542 47.7295 11.9381 47.5617C13.1341 47.2182 13.2534 47.149 13.447 46.6856C13.6092 46.2972 13.6084 46.2041 13.4392 45.8771C13.204 45.4224 13.0159 45.3194 12.0631 45.1247C11.4189 44.993 11.223 44.8809 10.6746 44.3295C10.1024 43.7542 10.0146 43.5909 9.82898 42.7579C9.57148 41.6015 9.38198 41.375 8.67161 41.375C8.24836 41.375 8.09211 41.4359 7.95023 41.6562ZM8.16161 45.7812L7.64548 46.3125L8.13423 46.8746L8.62311 47.4367L9.20136 46.8585L9.77961 46.2803L9.27973 45.7651C9.00486 45.4818 8.75686 45.25 8.72873 45.25C8.70061 45.25 8.44536 45.4891 8.16161 45.7812ZM28.5125 48.1056C28.3269 48.2681 28.206 48.7821 27.9499 50.5C27.6292 52.65 27.2515 55.0352 26.7424 58.125C26.6007 58.9844 26.4532 60.0591 26.4147 60.5132C26.2987 61.8785 24.8061 61.75 40.7841 61.75H54.637L54.9437 61.4431C55.1125 61.2744 55.2506 61.0619 55.2506 60.971C55.2506 60.88 54.9742 59.204 54.6365 57.2465C54.2987 55.289 53.8169 52.45 53.5656 50.9375C53.3145 49.425 53.0705 48.1521 53.0236 48.1089C52.9766 48.0656 47.4955 48.0006 40.8435 47.9645C29.7115 47.9041 28.7301 47.9153 28.5125 48.1056Z" fill="black"/>
</g>
<defs>
<clipPath id="clip0_1131_674">
<rect width="64" height="64" fill="white"/>
</clipPath>
</defs>
</svg>
