<svg width="65" height="65" viewBox="0 0 65 65" fill="none" xmlns="http://www.w3.org/2000/svg">
<g clip-path="url(#clip0_1131_674)">
<path fill-rule="evenodd" clip-rule="evenodd" d="M3.73272 0.508301C3.64072 0.731801 3.52684 1.20218 3.47972 1.5538C3.39659 2.1733 3.37772 2.19793 2.87209 2.34693C2.12747 2.56655 1.78772 2.9213 1.78772 3.47943C1.78772 4.02268 2.05847 4.3143 2.67097 4.43068C3.41047 4.57118 3.53772 4.68943 3.53772 5.23543C3.53772 6.2788 4.11622 6.98493 4.82522 6.80705C4.99347 6.7648 5.32097 6.47955 5.55309 6.17305L5.97522 5.61605L6.88247 5.68993C7.64859 5.75243 7.82859 5.7288 8.03872 5.53855C8.41347 5.19955 8.35584 4.60343 7.87997 3.8958L7.47222 3.28955L7.88459 2.60205C8.39847 1.74555 8.40059 1.14543 7.89109 0.860801C7.59184 0.693551 7.46172 0.696926 6.64297 0.893426C6.14022 1.01418 5.71372 1.06818 5.69522 1.01368C5.67684 0.959176 5.55022 0.731801 5.41409 0.508301C5.18709 0.136051 5.11347 0.102051 4.53322 0.102051C3.93647 0.102051 3.89034 0.125426 3.73272 0.508301ZM18.2271 0.272801C18.0565 0.397426 17.9786 0.650051 17.9381 1.2103L17.8827 1.97705H17.2102C16.4246 1.97705 16.0377 2.26118 16.0377 2.83818C16.0377 3.4523 16.3987 3.75743 17.2045 3.8243L17.9127 3.88305V4.43618C17.9127 5.04918 18.17 5.65505 18.4808 5.77443C18.8642 5.92155 19.3745 5.85155 19.5808 5.62343C19.7263 5.46268 19.7877 5.1658 19.7877 4.62343V3.85205H20.4752C20.9961 3.85205 21.2233 3.79143 21.4127 3.60205C21.7145 3.3003 21.7415 2.64505 21.4681 2.25493C21.3042 2.0208 21.1566 1.97705 20.5306 1.97705H19.7877V1.28955C19.7877 0.768676 19.7271 0.541426 19.5377 0.352051C19.2463 0.0606758 18.5728 0.0199258 18.2271 0.272801ZM29.4127 1.7698V3.43755L28.569 3.76418C28.1048 3.9438 27.4031 4.20943 27.0093 4.35443C25.8712 4.7733 25.4667 5.54305 26.069 6.14405C26.2237 6.29843 27.0316 6.66568 27.8642 6.96018L29.3783 7.49568L29.4571 8.33005C29.5005 8.78905 29.5363 9.54018 29.5368 9.99918C29.5376 10.7516 29.5702 10.8594 29.8671 11.0929C30.5452 11.6264 30.9782 11.3618 32.6856 9.37043L33.2593 8.7013L34.9076 9.16305C36.3518 9.56768 36.6017 9.60593 36.9266 9.4713C37.7591 9.12655 37.7102 8.5298 36.7272 7.03718C35.6382 5.38355 35.6437 5.6208 36.6555 3.96118C37.6153 2.38655 37.7315 1.9208 37.2771 1.46643C37.0586 1.24793 36.9023 1.21443 36.3083 1.25855C35.9188 1.28743 35.1036 1.4468 34.4967 1.6128L33.3932 1.91455L32.5781 1.0083L31.763 0.102051H30.856H29.949L29.8266 1.6958L29.7042 3.28955L29.6835 1.6958C29.671 0.730426 29.6135 0.102051 29.5377 0.102051C29.4606 0.102051 29.4127 0.741301 29.4127 1.7698ZM31.4127 3.7253V4.59843L30.658 4.97943C30.2428 5.18905 29.9335 5.40943 29.9705 5.4693C30.0075 5.52918 30.3471 5.70643 30.7252 5.86305L31.4127 6.14805V6.90155V7.65518L32.0336 7.04368L32.6543 6.43218L33.3022 6.58168C33.6586 6.66405 33.9753 6.70618 34.0061 6.67543C34.0368 6.64468 33.9053 6.34093 33.714 6.00043L33.366 5.38143L33.8215 4.6168C34.0757 4.19005 34.2103 3.85268 34.1261 3.85343C34.0431 3.85418 33.709 3.93555 33.3835 4.0343L32.7917 4.21393L32.196 3.53455C31.8683 3.16093 31.558 2.85455 31.5065 2.85368C31.455 2.8528 31.4127 3.24505 31.4127 3.7253ZM4.61059 3.18268C4.51434 3.43343 4.86647 3.85205 5.17372 3.85205C5.45422 3.85205 5.60722 3.39893 5.40772 3.15855C5.20434 2.91343 4.70809 2.92843 4.61059 3.18268ZM51.2877 4.31368C50.3682 4.46818 49.0362 4.91268 48.1271 5.3683C45.2391 6.81568 42.7947 9.18255 40.6347 12.6236C39.6406 14.2071 37.9366 17.2953 37.831 17.7049C37.737 18.0693 37.9698 18.3449 38.1877 18.1271C38.2702 18.0446 38.6218 17.9762 38.969 17.9752C39.7455 17.9728 39.8181 17.9278 40.399 17.0886C40.9917 16.2323 41.2657 16.1802 41.7028 16.8407L42.0341 17.3412L42.6296 17.1604C42.9572 17.0611 43.2746 16.9792 43.3348 16.9784C43.4467 16.9771 43.3726 17.9507 43.2245 18.4282C43.1522 18.6613 43.2056 18.7016 43.684 18.7751C45.1937 19.0071 50.1206 20.0253 50.2565 20.1333C50.4816 20.3124 50.464 21.5902 50.2352 21.6781C50.1376 21.7156 48.4078 21.4348 46.3915 21.0543C44.375 20.6737 41.8252 20.2172 40.7252 20.0397C37.7257 19.5558 38.0377 19.6778 38.0377 18.989V18.3959L35.194 17.9335C31.7342 17.3709 31.3975 17.3606 31.0468 17.8064C30.5025 18.4984 30.8525 19.4396 31.748 19.6918C32.0105 19.7657 33.28 19.9837 34.569 20.1762L36.9127 20.5263V22.3039C36.9127 23.2817 36.9468 24.1706 36.9886 24.2793C37.0531 24.4473 37.3431 24.4771 38.918 24.4771C39.9373 24.4771 40.9088 24.5293 41.0767 24.5932C41.6913 24.8268 41.758 25.9084 41.177 26.2194C41.033 26.2964 40.1218 26.3521 39.0035 26.3521H37.0777L36.9955 29.4458C36.8818 33.7223 36.8972 37.8218 37.029 38.3897C37.2121 39.1786 37.6511 39.6874 38.4627 40.0518C39.0932 40.3349 39.3201 40.3739 40.0252 40.3209C43.58 40.0534 48.2078 34.7834 50.1616 28.7782C50.6673 27.2234 51.2877 24.0419 51.2877 23.0027C51.2877 22.4868 51.3075 22.4536 51.569 22.5286C52.1853 22.7054 55.8667 23.3521 56.2573 23.3521C56.8587 23.3521 57.2877 22.8859 57.2877 22.2327C57.2877 21.3179 57.1887 21.2764 53.2252 20.5324C52.2627 20.3518 51.4541 20.1834 51.4283 20.1582C51.3017 20.0346 51.0723 14.3397 51.1723 13.8041C51.4137 12.5119 52.0371 11.5546 52.939 11.0906C53.5682 10.7669 54.4046 10.7847 56.9752 11.1762C60.2988 11.6824 60.1855 11.6782 60.6086 11.3137C60.934 11.0334 60.9735 10.9229 60.9597 10.3312C60.9247 8.83093 59.4703 6.72318 57.6627 5.55343C56.0886 4.53468 54.9617 4.21968 52.9802 4.24405C52.2212 4.25343 51.4596 4.28468 51.2877 4.31368ZM10.9728 6.52568C10.8605 6.69718 10.658 7.4173 10.5227 8.12605C10.103 10.3269 10.2666 10.0908 8.91997 10.4389C7.51134 10.8029 7.07734 11.0764 6.96584 11.6703C6.83797 12.3522 7.14472 12.6776 8.51872 13.3174C9.18222 13.6264 9.73859 13.8912 9.75484 13.9058C9.77122 13.9203 9.83122 14.6731 9.88834 15.5786C9.98159 17.0586 10.0218 17.2566 10.2867 17.5384C10.8312 18.1181 11.1838 17.9869 12.4686 16.7271C13.0995 16.1083 13.685 15.6021 13.7695 15.6021C13.854 15.6021 14.4945 15.8009 15.1928 16.0441C16.5718 16.5241 17.0251 16.5283 17.3501 16.0643C17.4532 15.9169 17.5377 15.6309 17.5377 15.4287C17.5377 15.1143 16.8995 13.7801 16.3291 12.9021C16.1725 12.6609 16.2348 12.5353 17.0981 11.3549C18.1518 9.91418 18.238 9.58505 17.694 9.07905C17.2065 8.62555 16.8957 8.59305 15.4127 8.84068L14.1002 9.05993L13.5795 8.23718C13.2931 7.7848 12.8993 7.16143 12.7045 6.85205C12.3758 6.3303 12.3077 6.2868 11.7636 6.2518C11.2546 6.21893 11.1501 6.25518 10.9728 6.52568ZM50.9315 6.85205C50.8058 7.2123 50.7712 7.22705 50.0545 7.22705C48.8595 7.22705 48.8333 7.26793 49.4868 8.11718C49.9438 8.71093 50.0421 8.9248 49.9842 9.19843C49.8986 9.6033 50.0556 10.2538 50.2551 10.3203C50.3328 10.3463 50.5266 10.1394 50.6858 9.86068C50.9021 9.48205 51.0542 9.35355 51.2877 9.3523C51.6343 9.35043 52.5377 9.12155 52.5377 9.03543C52.5377 9.0053 52.3435 8.61443 52.106 8.1668C51.8685 7.71918 51.6372 7.15593 51.5921 6.91505C51.4863 6.35168 51.1181 6.31655 50.9315 6.85205ZM53.7877 6.56768C53.7877 6.63455 54.3792 8.24893 54.4743 8.44155C54.5061 8.50593 57.7166 8.8398 57.7718 8.78455C57.8876 8.6688 56.9746 7.83418 56.2486 7.39193C55.8488 7.14855 55.1738 6.84355 54.7486 6.71418C53.8873 6.4523 53.7877 6.43705 53.7877 6.56768ZM46.6557 9.25043C46.2912 9.84493 46.1566 9.96393 45.7776 10.0254C45.5313 10.0656 45.23 10.2087 45.1077 10.3438C44.8925 10.5817 44.8986 10.5972 45.3053 10.8452C45.5363 10.9859 45.7627 11.1013 45.8086 11.1016C45.8545 11.1018 45.9918 11.3693 46.1137 11.6958C46.4103 12.4901 46.6493 12.8493 46.834 12.7784C46.9178 12.7463 47.1401 12.4826 47.3278 12.1923C47.5398 11.8644 47.8691 11.5694 48.1972 11.4134C48.9356 11.0622 48.9791 10.6766 48.3106 10.4091C47.8815 10.2374 47.7686 10.1022 47.4515 9.3798L47.0863 8.54818L46.6557 9.25043ZM12.0651 10.6141C11.9872 11.0332 11.8655 11.4458 11.7946 11.5312C11.7238 11.6166 11.3532 11.7614 10.971 11.8531C10.5887 11.9448 10.2511 12.0603 10.2205 12.1098C10.1898 12.1593 10.53 12.3551 10.9762 12.5447L11.7877 12.8896V13.6208C11.7877 14.0231 11.839 14.3521 11.9016 14.3521C11.9642 14.3521 12.1485 14.1974 12.311 14.0083C12.9026 13.3201 12.9572 13.3039 13.7288 13.5927L14.4306 13.8552L14.3431 13.5724C14.295 13.4168 14.1488 13.0778 14.0182 12.8191L13.7808 12.3487L14.3468 11.7437C14.6581 11.4109 14.9127 11.1088 14.9127 11.0723C14.9127 11.0359 14.5087 11.0831 14.015 11.1772C13.5212 11.2712 13.1085 11.3351 13.0978 11.3189C13.0872 11.3028 12.8965 10.9661 12.674 10.5708C12.4515 10.1756 12.2553 9.85205 12.2381 9.85205C12.221 9.85205 12.1431 10.1949 12.0651 10.6141ZM3.21784 10.2793C3.03209 10.4151 2.96059 10.6569 2.91272 11.3106L2.85022 12.1646L2.24584 12.1259C1.37772 12.0704 1.03772 12.3229 1.03772 13.0231C1.03772 13.7436 1.30359 13.9771 2.12422 13.9771H2.75347L2.82084 14.8159C2.87422 15.4807 2.94547 15.7013 3.16434 15.8784C3.51972 16.1663 3.93509 16.1627 4.29809 15.8688C4.53359 15.6781 4.59584 15.4839 4.63909 14.8063L4.69184 13.9771H5.40797C6.26909 13.9771 6.53772 13.7542 6.53772 13.0396C6.53772 12.2929 6.27659 12.0939 5.41497 12.1841L4.69947 12.2588L4.63084 11.4041C4.57622 10.7237 4.50597 10.5036 4.28609 10.3257C3.95372 10.0564 3.54697 10.0388 3.21784 10.2793ZM42.9905 13.2723C42.604 13.8472 42.2877 14.3768 42.2877 14.4492C42.2877 14.5562 43.3253 15.2271 43.491 15.2271C43.5167 15.2271 43.5377 15.0518 43.5377 14.8377C43.5377 14.5523 43.6546 14.3412 43.9752 14.0476C44.2158 13.8272 44.4127 13.6049 44.4127 13.5538C44.4127 13.3618 43.878 12.2271 43.7875 12.2271C43.7356 12.2271 43.3768 12.6974 42.9905 13.2723ZM46.7805 14.5238C46.5452 14.9224 46.4538 14.9771 46.0222 14.9771H45.5313L45.722 15.3458C45.9682 15.8219 45.9626 15.9634 45.6712 16.6142C45.5385 16.9108 45.4517 17.1891 45.4786 17.2326C45.5055 17.2761 45.8532 17.2672 46.2513 17.2129C46.9683 17.1152 46.9797 17.1186 47.444 17.5709L47.9127 18.0278V17.2111V16.3944L48.4752 15.9904C48.7846 15.7683 49.0377 15.5387 49.0377 15.4802C49.0377 15.4217 48.6878 15.3268 48.2602 15.2692C47.5012 15.1671 47.4798 15.1537 47.354 14.7061C47.1681 14.0442 47.08 14.0162 46.7805 14.5238ZM21.8095 14.7663C21.591 14.9991 21.5377 15.2071 21.5377 15.8288V16.6021H20.8696C20.071 16.6021 19.7877 16.8396 19.7877 17.5091C19.7877 18.1136 20.24 18.4771 20.9921 18.4771H21.5377V19.2678C21.5377 19.9327 21.5837 20.1017 21.827 20.3303C22.2108 20.6908 22.7243 20.6767 23.1058 20.2952C23.3692 20.0319 23.4127 19.8723 23.4127 19.1702V18.3521H24.0931C24.8723 18.3521 25.1627 18.0939 25.1627 17.4012C25.1627 16.8883 24.7388 16.6021 23.9796 16.6021H23.4127V15.7987C23.4127 15.0796 23.3781 14.9681 23.0833 14.7362C22.6491 14.3946 22.1476 14.4064 21.8095 14.7663ZM14.1593 17.6832C13.6138 18.0471 12.9127 18.7718 12.9133 18.9712C12.9136 19.0776 13.1313 19.8396 13.3971 20.6646C13.663 21.4896 14.0888 22.8396 14.3437 23.6646C14.5985 24.4896 15.2248 26.4302 15.7356 27.9771C16.2465 29.5239 16.6638 30.8458 16.6633 30.9146C16.6627 30.9833 16.4315 31.2568 16.1493 31.5223C14.4978 33.0762 14.8921 35.6342 16.9402 36.6548C17.2958 36.8321 17.764 36.9771 17.9806 36.9771H18.3745L19.1545 39.5083C19.5833 40.9004 20.0951 42.5458 20.2916 43.1646C20.488 43.7833 20.876 45.0242 21.1536 45.9221C21.7405 47.8196 21.9767 48.1362 22.8057 48.1362C23.2241 48.1362 23.394 48.0662 23.6232 47.7997C23.7825 47.6145 23.9127 47.3601 23.9127 47.2341C23.9127 46.9082 23.4655 45.3996 21.8992 40.4432L20.5258 36.0969L20.9377 35.5234C21.3032 35.0144 21.3546 34.8411 21.3935 33.9827C21.4296 33.1882 21.3905 32.9236 21.1743 32.4998C20.7908 31.7482 20.2332 31.1628 19.63 30.8787L19.1002 30.6291L18.4542 28.6468C18.099 27.5566 17.1793 24.7239 16.4106 22.3521C15.0907 18.2801 14.7863 17.4771 14.5626 17.4771C14.5108 17.4771 14.3292 17.5698 14.1593 17.6832ZM4.49959 23.9877C4.16884 24.1848 4.07284 24.5367 3.97209 25.9213C3.80447 28.2256 3.80434 28.2262 3.16272 28.4738C2.85334 28.5932 2.04947 28.9026 1.37634 29.1614L0.152344 29.6319L0.188844 30.5232L0.225219 31.4146L0.850219 31.6264C1.19397 31.7429 1.98147 32.0251 2.60022 32.2536L3.72522 32.6687L3.80184 34.2917C3.90509 36.4783 4.19947 37.1437 5.06347 37.1437C5.50522 37.1437 5.80522 36.8436 6.91272 35.2939C7.29084 34.7648 7.65984 34.2822 7.73259 34.2214C7.86422 34.1117 10.0726 34.7948 10.7961 35.1689C11.6852 35.6287 12.4696 35.2449 12.4696 34.3503C12.4696 33.954 12.287 33.5973 11.4411 32.3412C10.8755 31.5012 10.4127 30.7482 10.4127 30.6679C10.4127 30.5877 10.6005 30.3009 10.8298 30.0308C11.6327 29.0854 12.6627 27.4237 12.6627 27.0739C12.6627 26.8721 12.5135 26.5639 12.2998 26.3248C11.8852 25.8608 12.1588 25.8293 9.43497 26.6549C8.04447 27.0764 8.01609 27.0797 7.81334 26.8428C7.69972 26.7102 7.15534 25.9971 6.60347 25.2581C5.68834 24.0326 5.56184 23.9118 5.16272 23.8839C4.92209 23.8671 4.62372 23.9138 4.49959 23.9877ZM23.6185 24.6586C23.1461 25.0964 23.1923 25.5042 23.7877 26.1501C24.0627 26.4484 24.2877 26.7338 24.2877 26.7843C24.2877 26.8348 24.0627 27.1318 23.7877 27.4442C23.2253 28.0831 23.1697 28.4184 23.5468 28.8977C23.7465 29.1516 23.9161 29.2271 24.2871 29.2271C24.6975 29.2271 24.8342 29.1499 25.2171 28.7027L25.666 28.1782L26.2003 28.7027C26.8451 29.3354 27.3715 29.4046 27.8558 28.9202C28.3405 28.4357 28.2392 28.0619 27.3727 27.1368L26.9955 26.7341L27.5791 26.1905C28.2495 25.5663 28.3 25.2843 27.8391 24.7367C27.5813 24.4303 27.418 24.3521 27.0363 24.3521C26.6316 24.3521 26.4903 24.4301 26.1271 24.8546L25.6971 25.3569L25.1946 24.8546C24.5931 24.2531 24.1196 24.1942 23.6185 24.6586ZM5.85534 28.0083C5.82809 28.0943 5.76934 28.4898 5.72472 28.8873L5.64372 29.6102L4.80947 30.0123C4.35059 30.2336 3.98534 30.4659 3.99784 30.5288C4.01022 30.5917 4.29159 30.7604 4.62322 30.9038C5.50459 31.2851 5.48934 31.2647 5.65409 32.2859C5.73759 32.8036 5.84597 33.2271 5.89484 33.2271C5.94384 33.2271 6.08247 33.0601 6.20297 32.8561C6.32347 32.6521 6.56022 32.3209 6.72897 32.1203L7.03584 31.7557L7.85559 32.0059C8.30647 32.1436 8.70822 32.2232 8.74847 32.1829C8.78872 32.1428 8.74022 31.9816 8.64084 31.8247C8.54134 31.6679 8.33722 31.3366 8.18697 31.0883L7.91397 30.6372L8.47409 29.7844C8.78209 29.3154 9.01384 28.9114 8.98897 28.8866C8.96409 28.8618 8.57247 28.9347 8.11859 29.0487C7.66484 29.1627 7.20997 29.2239 7.10784 29.1848C7.00572 29.1456 6.73734 28.8307 6.51122 28.4851C6.09022 27.8413 5.94234 27.7338 5.85534 28.0083ZM22.7343 31.7124C22.6967 31.7731 22.782 32.1528 22.9237 32.5562C23.2875 33.5918 23.2127 35.0312 22.7478 35.9391C22.1211 37.1634 22.3207 37.2271 26.7868 37.2271H30.2486L29.896 39.3208C29.4635 41.8896 28.9127 45.6111 28.9127 45.9654V46.2271H40.9127C49.1972 46.2271 52.9127 46.1864 52.9127 46.0961C52.9127 46.0239 52.6815 44.5021 52.3988 42.7141C52.1161 40.9261 51.925 39.4242 51.974 39.3764C52.1743 39.1811 53.5476 40.9821 54.2087 42.3071C54.8987 43.6899 55.1451 44.7304 55.4775 47.6646C55.6487 49.1771 55.8187 50.5577 55.8551 50.7327C55.8916 50.9077 55.8313 51.2664 55.7212 51.5298C55.2716 52.6061 56.0041 54.2985 57.198 54.9413C57.7363 55.2312 59.2035 55.2372 59.7328 54.9515C60.2701 54.6617 60.8988 53.9932 61.1197 53.4771C61.4183 52.7794 61.3766 51.5149 61.033 50.8497C60.7818 50.3633 60.7226 49.9654 60.5832 47.827C60.323 43.833 59.6403 41.3732 58.0543 38.7136C57.0858 37.0896 56.0678 35.8506 54.8193 34.7762C53.7457 33.8523 52.0935 32.7267 51.2697 32.3579L50.7343 32.1182L50.1001 33.3289C47.7592 37.7978 44.4931 41.0063 41.3568 41.9181C40.2438 42.2416 38.554 42.1367 37.6348 41.6869C36.7461 41.2522 35.9781 40.4821 35.5555 39.6021C35.2258 38.9158 35.2251 38.9078 35.1851 35.3539C35.1562 32.7952 35.1035 31.7669 34.9976 31.6996C34.7878 31.5662 22.817 31.5787 22.7343 31.7124ZM8.11234 41.7583C8.01259 41.9131 7.83809 42.4027 7.72434 42.8465C7.47872 43.8052 7.28822 44.1971 6.89334 44.5562C6.46584 44.9451 5.94422 45.1792 5.13247 45.3464C4.32997 45.5118 4.03522 45.7994 4.04172 46.4112C4.04784 46.9983 4.30559 47.2144 5.40134 47.5509C6.93784 48.0228 7.51522 48.6451 7.78872 50.1241C7.93747 50.9283 8.34622 51.3521 8.97309 51.3521C9.54072 51.3521 9.81772 50.9743 10.0287 49.9128C10.1743 49.1802 10.2751 48.9853 10.7737 48.4724C11.2225 48.0107 11.5163 47.8315 12.1002 47.6638C13.2962 47.3203 13.4155 47.251 13.6091 46.7877C13.7713 46.3993 13.7705 46.3062 13.6013 45.9792C13.3661 45.5244 13.178 45.4214 12.2252 45.2268C11.581 45.095 11.3851 44.9829 10.8367 44.4315C10.2645 43.8563 10.1767 43.6929 9.99109 42.8599C9.73359 41.7035 9.54409 41.4771 8.83372 41.4771C8.41047 41.4771 8.25422 41.5379 8.11234 41.7583ZM8.32372 45.8833L7.80759 46.4146L8.29634 46.9767L8.78522 47.5388L9.36347 46.9606L9.94172 46.3823L9.44184 45.8672C9.16697 45.5838 8.91897 45.3521 8.89084 45.3521C8.86272 45.3521 8.60747 45.5912 8.32372 45.8833ZM28.6746 48.2077C28.489 48.3702 28.3681 48.8842 28.112 50.6021C27.7913 52.7521 27.4136 55.1373 26.9045 58.2271C26.7628 59.0864 26.6153 60.1612 26.5768 60.6153C26.4608 61.9805 24.9682 61.8521 40.9462 61.8521H54.7991L55.1058 61.5452C55.2746 61.3764 55.4127 61.1639 55.4127 61.0731C55.4127 60.9821 55.1363 59.306 54.7986 57.3485C54.4608 55.391 53.979 52.5521 53.7277 51.0396C53.4766 49.5271 53.2326 48.2542 53.1857 48.2109C53.1387 48.1677 47.6576 48.1027 41.0056 48.0666C29.8736 48.0062 28.8922 48.0173 28.6746 48.2077Z" fill="black"/>
</g>
<defs>
<clipPath id="clip0_1131_674">
<rect width="64" height="64" fill="white" transform="translate(0.162109 0.102051)"/>
</clipPath>
</defs>
</svg>
